HIERARCHY
ROOT Hips
{
  OFFSET 61.7621 91.3739 24.0114
  CHANNELS 6 Xposition Yposition Zposition Zrotation Xrotation Yrotation
  JOINT spine
  {
    OFFSET 0 6.84637 0.3937
    CHANNELS 3 Zrotation Xrotation Yrotation
    JOINT spine1
    {
      OFFSET 0 9.49621 0
      CHANNELS 3 Zrotation Xrotation Yrotation
      JOINT spine2
      {
        OFFSET 0 9.09909 0
        CHANNELS 3 Zrotation Xrotation Yrotation
        JOINT Neck
        {
          OFFSET 0 23.3612 1.11378
          CHANNELS 3 Zrotation Xrotation Yrotation
          JOINT Head
          {
            OFFSET 0 7.05802 0
            CHANNELS 3 Zrotation Xrotation Yrotation
            End Site
            {
              OFFSET 0 17.0844 -5.63419
            }
          }
        }
        JOINT RightShoulder
        {
          OFFSET -3.83136 9.82631 -0.533491
          CHANNELS 3 Zrotation Xrotation Yrotation
          JOINT RightArm
          {
            OFFSET 0 12.8881 0
            CHANNELS 3 Zrotation Xrotation Yrotation
            JOINT RightArmRoll
            {
              OFFSET 0 6.50616 0
              CHANNELS 3 Zrotation Xrotation Yrotation
              JOINT RightForeArm
              {
                OFFSET 0 18.9501 0
                CHANNELS 3 Zrotation Xrotation Yrotation
                JOINT RightForeArmRoll
                {
                  OFFSET 0 7.30092 0
                  CHANNELS 3 Zrotation Xrotation Yrotation
                  JOINT RightHand
                  {
                    OFFSET 0 14.6514 0
                    CHANNELS 3 Zrotation Xrotation Yrotation
                    End Site
                    {
                      OFFSET 0 0 0
                    }
                  }
                }
              }
            }
          }
        }
        JOINT LeftShoulder
        {
          OFFSET 3.83136 9.82631 -0.533491
          CHANNELS 3 Zrotation Xrotation Yrotation
          JOINT LeftArm
          {
            OFFSET 0 12.8881 0
            CHANNELS 3 Zrotation Xrotation Yrotation
            JOINT LeftArmRoll
            {
              OFFSET 0 6.50617 0
              CHANNELS 3 Zrotation Xrotation Yrotation
              JOINT LeftForeArm
              {
                OFFSET 0 18.9501 0
                CHANNELS 3 Zrotation Xrotation Yrotation
                JOINT LeftForeArmRoll
                {
                  OFFSET 0 7.30092 0
                  CHANNELS 3 Zrotation Xrotation Yrotation
                  JOINT LeftHand
                  {
                    OFFSET 0 14.6514 0
                    CHANNELS 3 Zrotation Xrotation Yrotation
                    End Site
                    {
                      OFFSET 0 0 0
                    }
                  }
                }
              }
            }
          }
        }
      }
    }
  }
  JOINT RightUpLeg
  {
    OFFSET -6.06837 -1.11278 -0.933477
    CHANNELS 3 Zrotation Xrotation Yrotation
    JOINT RightUpLegRoll
    {
      OFFSET 0 17.1796 0
      CHANNELS 3 Zrotation Xrotation Yrotation
      JOINT RightLeg
      {
        OFFSET 0 -21.2743 0
        CHANNELS 3 Zrotation Xrotation Yrotation
        JOINT RightLegRoll
        {
          OFFSET 0 21.3439 0
          CHANNELS 3 Zrotation Xrotation Yrotation
          JOINT RightFoot
          {
            OFFSET 0 17.7652 0
            CHANNELS 3 Zrotation Xrotation Yrotation
            JOINT RightToeBase
            {
              OFFSET 0 14.8508 0
              CHANNELS 3 Zrotation Xrotation Yrotation
              End Site
              {
                OFFSET 0.0062947 7.19214 -0.829005
              }
            }
          }
        }
      }
    }
  }
  JOINT LeftUpLeg
  {
    OFFSET 6.06837 -1.11278 -0.933477
    CHANNELS 3 Zrotation Xrotation Yrotation
    JOINT LeftUpLegRoll
    {
      OFFSET 0 17.1797 0
      CHANNELS 3 Zrotation Xrotation Yrotation
      JOINT LeftLeg
      {
        OFFSET 0 21.2742 0
        CHANNELS 3 Zrotation Xrotation Yrotation
        JOINT LeftLegRoll
        {
          OFFSET 0 21.5412 0
          CHANNELS 3 Zrotation Xrotation Yrotation
          JOINT LeftFoot
          {
            OFFSET 0 17.5679 0
            CHANNELS 3 Zrotation Xrotation Yrotation
            JOINT LeftToeBase
            {
              OFFSET 0 14.8508 0
              CHANNELS 3 Zrotation Xrotation Yrotation
              End Site
              {
                OFFSET -0.0282102 7.19213 -0.829005
              }
            }
          }
        }
      }
    }
  }
}
MOTION
Frames: 10
Frame Time: 0.00208333
54.4176 91.4828 8.38597 1.20548 -1.34406 -1.62682 0.0318902 -1.89163 -0.0901658 0.043381 0.219511 -0.166043 0.0453874 1.86458 -0.16682 -5.94683 26.2204 1.06776 4.40335 -11.0026 -0.547479 69.9865 5.61777 1.46571 102.974 5.8341 14.3852 4.57376e-007 3.88241e-007 -7.31331e-006 9.87797 12.1186 -2.16098 -1.31044e-005 -2.32887e-007 -3.00544 8.02899 -4.95142 0.697669 -72.3716 5.47152 -0.992698 -101.115 12.9884 -26.0689 1.0364e-007 4.13987e-008 1.92324e-006 -7.53234 0.0657939 0.544727 5.39996e-006 -3.60118e-006 3.05932 -8.02921 -4.95144 -0.697652 172.906 2.95625 2.92443 180 7.01541e-015 178.899 177.569 7.48424 179.911 -1.26887e-006 2.66426e-006 0.0827623 -18.525 67.7207 19.3213 8.13568 25.2327 -3.48739 -175.874 -1.66932 0.377544 4.54188e-006 -4.6773e-006 -1.14527 -1.37082 -5.39352 0.0965977 4.11793e-006 -1.63235e-006 -0.0280465 18.3767 67.5156 -19.1219 -8.13186 25.2329 3.48576 
54.4188 91.4825 8.38474 1.19867 -1.30461 -1.63106 0.0316009 -1.89282 -0.0885556 0.0441734 0.217142 -0.164054 0.0461563 1.86221 -0.164844 -5.90923 26.2394 1.05988 4.37629 -11.0391 -0.544529 70.0623 5.66914 1.47713 102.915 5.74438 14.4777 4.57376e-007 3.88241e-007 -7.31331e-006 9.84365 12.1046 -2.15778 -1.31044e-005 -2.32887e-007 -3.00544 8.02899 -4.95142 0.697669 -72.3645 5.48329 -0.999247 -101.138 12.8826 -25.998 1.0364e-007 4.13987e-008 1.92324e-006 -7.62105 0.0657795 0.527559 5.39996e-006 -3.60118e-006 3.05611 -8.02921 -4.95144 -0.697652 172.922 3.00078 2.91061 180 7.01541e-015 178.899 177.574 7.46654 179.911 -1.26887e-006 2.66426e-006 0.0819924 -18.506 67.6969 19.3009 8.13568 25.2327 -3.48739 -175.87 -1.61238 0.379414 4.54188e-006 -4.6773e-006 -1.14486 -1.36831 -5.40801 0.0974737 4.11793e-006 -1.63235e-006 -0.0280553 18.3711 67.5086 -19.1165 -8.13186 25.2329 3.48576 
54.4231 91.4793 8.36597 1.19206 -1.26524 -1.635 0.0311538 -1.89416 -0.0868968 0.0447076 0.214458 -0.162 0.0466661 1.85953 -0.162798 -5.86948 26.2621 1.05135 4.34803 -11.0777 -0.541688 70.1424 5.72284 1.48891 102.852 5.65266 14.5736 4.57376e-007 3.88241e-007 -7.31331e-006 9.8084 12.0882 -2.15427 -1.31044e-005 -2.32887e-007 -3.00544 8.02899 -4.95142 0.697669 -72.3581 5.49684 -1.00651 -101.161 12.774 -25.9242 1.0364e-007 4.13987e-008 1.92324e-006 -7.71351 0.0657644 0.509833 5.39996e-006 -3.60118e-006 3.05279 -8.02921 -4.95144 -0.697652 172.938 3.04461 2.89715 180 7.01541e-015 178.899 177.578 7.44778 179.91 -1.26887e-006 2.66426e-006 0.0812258 -18.4868 67.6729 19.2803 8.13568 25.2327 -3.48739 -175.866 -1.55575 0.38164 4.54188e-006 -4.6773e-006 -1.14448 -1.36558 -5.42223 0.098361 4.11793e-006 -1.63235e-006 -0.0280685 18.3656 67.5018 -19.1113 -8.13186 25.2329 3.48576 
54.4373 91.4815 8.36784 1.18559 -1.22593 -1.63874 0.0305962 -1.89561 -0.0852039 0.0450612 0.211554 -0.159902 0.0469948 1.85662 -0.160705 -5.82822 26.2875 1.04234 4.31891 -11.1179 -0.538923 70.2256 5.77819 1.50094 102.785 5.55956 14.672 4.57376e-007 3.88241e-007 -7.31331e-006 9.77251 12.0702 -2.15054 -1.31044e-005 -2.32887e-007 -3.00544 8.02899 -4.95142 0.697669 -72.3522 5.51165 -1.01427 -101.183 12.6635 -25.8483 1.0364e-007 4.13987e-008 1.92324e-006 -7.8086 0.0657489 0.491715 5.39996e-006 -3.60118e-006 3.04939 -8.02921 -4.95144 -0.697652 172.953 3.08794 2.88394 180 7.01542e-015 178.9 177.582 7.42826 179.91 -1.26887e-006 2.66426e-006 0.0804613 -18.4675 67.6487 19.2596 8.13568 25.2327 -3.48739 -175.862 -1.49934 0.384117 4.54188e-006 -4.6773e-006 -1.14411 -1.36271 -5.43625 0.0992561 4.11793e-006 -1.63235e-006 -0.0280847 18.3603 67.4952 -19.1062 -8.13186 25.2329 3.48576 
54.435 91.4756 8.33507 1.1792 -1.18665 -1.64235 0.0299755 -1.89713 -0.0834915 0.0453117 0.208523 -0.157778 0.04722 1.85359 -0.158585 -5.7861 26.3143 1.03306 4.28932 -11.1589 -0.5362 70.3105 5.83447 1.51311 102.717 5.46569 14.7718 4.57376e-007 3.88241e-007 -7.31331e-006 9.73625 12.0513 -2.14669 -1.31044e-005 -2.32887e-007 -3.00544 8.02899 -4.95142 0.697669 -72.3467 5.52717 -1.02232 -101.204 12.5517 -25.7714 1.0364e-007 4.13987e-008 1.92324e-006 -7.90519 0.0657331 0.473373 5.39996e-006 -3.60118e-006 3.04594 -8.02921 -4.95144 -0.697652 172.969 3.13098 2.87087 180 7.01542e-015 178.9 177.586 7.4083 179.909 -1.26887e-006 2.66426e-006 0.0796982 -18.4482 67.6245 19.2388 8.13568 25.2327 -3.48739 -175.859 -1.44306 0.386736 4.54188e-006 -4.6773e-006 -1.14374 -1.35975 -5.45017 0.100156 4.11793e-006 -1.63235e-006 -0.0281027 18.3551 67.4887 -19.1011 -8.13186 25.2329 3.48576 
54.4397 91.4521 8.33401 1.17284 -1.14739 -1.64594 0.029339 -1.89866 -0.0817743 0.0455365 0.205461 -0.155647 0.0474194 1.85053 -0.156457 -5.74374 26.3416 1.02371 4.2596 -11.2001 -0.533489 70.3958 5.89099 1.52532 102.648 5.37169 14.8719 4.57376e-007 3.88241e-007 -7.31331e-006 9.6999 12.0322 -2.14282 -1.31044e-005 -2.32887e-007 -3.00544 8.02899 -4.95142 0.697669 -72.3411 5.54288 -1.03043 -101.225 12.4395 -25.6944 1.0364e-007 4.13987e-008 1.92324e-006 -8.00215 0.0657173 0.454976 5.39996e-006 -3.60118e-006 3.04249 -8.02921 -4.95144 -0.697652 172.985 3.17395 2.85784 180 7.01542e-015 178.9 177.589 7.38825 179.908 -1.26887e-006 2.66426e-006 0.0789353 -18.4289 67.6002 19.2181 8.13568 25.2327 -3.48739 -175.856 -1.38681 0.389392 4.54188e-006 -4.6773e-006 -1.14338 -1.35677 -5.46405 0.101057 4.11793e-006 -1.63235e-006 -0.028121 18.3499 67.4821 -19.0962 -8.13186 25.2329 3.48576 
54.4435 91.4528 8.31241 1.16645 -1.1081 -1.64959 0.0287343 -1.90016 -0.0800668 0.0458133 0.202462 -0.15353 0.047671 1.84753 -0.154344 -5.70181 26.3681 1.01448 4.23014 -11.2409 -0.530755 70.4802 5.94703 1.53747 102.581 5.27817 14.9713 4.57376e-007 3.88241e-007 -7.31331e-006 9.66375 12.0135 -2.139 -1.31044e-005 -2.32887e-007 -3.00544 8.02899 -4.95142 0.697669 -72.3355 5.55822 -1.03841 -101.246 12.3277 -25.6181 1.0364e-007 4.13987e-008 1.92324e-006 -8.09837 0.0657015 0.43669 5.39996e-006 -3.60118e-006 3.03905 -8.02921 -4.95144 -0.697652 173 3.21707 2.84474 180 7.01542e-015 178.9 177.593 7.3684 179.908 -1.26887e-006 2.66426e-006 0.0781718 -18.4097 67.5759 19.1974 8.13568 25.2327 -3.48739 -175.852 -1.3305 0.391976 4.54188e-006 -4.6773e-006 -1.14301 -1.35383 -5.47799 0.101955 4.11793e-006 -1.63235e-006 -0.0281385 18.3446 67.4756 -19.0911 -8.13186 25.2329 3.48576 
54.4297 91.4585 8.30183 1.15996 -1.06877 -1.65339 0.0282086 -1.90158 -0.0783836 0.0462194 0.19962 -0.151444 0.0480523 1.84469 -0.152264 -5.66095 26.3927 1.00559 4.20128 -11.2806 -0.527966 70.5624 6.00191 1.54944 102.516 5.18574 15.0691 4.57376e-007 3.88241e-007 -7.31331e-006 9.62805 11.996 -2.13534 -1.31044e-005 -2.32887e-007 -3.00544 8.02899 -4.95142 0.697669 -72.3294 5.57267 -1.04603 -101.266 12.2171 -25.5435 1.0364e-007 4.13987e-008 1.92324e-006 -8.19271 0.0656861 0.418684 5.39996e-006 -3.60118e-006 3.03567 -8.02921 -4.95144 -0.697652 173.016 3.26054 2.83146 180 7.01542e-015 178.901 177.597 7.34908 179.907 -1.26887e-006 2.66426e-006 0.0774067 -18.3906 67.5518 19.177 8.13568 25.2327 -3.48739 -175.849 -1.27403 0.394382 4.54188e-006 -4.6773e-006 -1.14263 -1.351 -5.49207 0.102848 4.11793e-006 -1.63235e-006 -0.0281539 18.3393 67.4689 -19.086 -8.13186 25.2329 3.48576 
54.436 91.4496 8.28749 1.15332 -1.02938 -1.65743 0.0278093 -1.90288 -0.0767394 0.0468323 0.197031 -0.14941 0.0486411 1.8421 -0.15024 -5.62179 26.4143 0.997233 4.1734 -11.3186 -0.525089 70.6411 6.05491 1.56114 102.456 5.09502 15.164 4.57376e-007 3.88241e-007 -7.31331e-006 9.59309 11.9803 -2.13193 -1.31044e-005 -2.32887e-007 -3.00544 8.02899 -4.95142 0.697669 -72.3228 5.58569 -1.05308 -101.287 12.1084 -25.4716 1.0364e-007 4.13987e-008 1.92324e-006 -8.28405 0.0656712 0.401125 5.39996e-006 -3.60118e-006 3.03239 -8.02921 -4.95144 -0.697652 173.032 3.30459 2.81789 180 7.01542e-015 178.901 177.602 7.33065 179.906 -1.26887e-006 2.66426e-006 0.0766392 -18.3717 67.5278 19.1567 8.13568 25.2327 -3.48739 -175.845 -1.21731 0.396503 4.54188e-006 -4.6773e-006 -1.14224 -1.34833 -5.50637 0.103732 4.11793e-006 -1.63235e-006 -0.0281657 18.3338 67.4621 -19.0807 -8.13186 25.2329 3.48576 
54.4515 91.4415 8.27739 1.14648 -0.989904 -1.66179 0.0275839 -1.904 -0.0751487 0.0477294 0.194789 -0.147446 0.0495151 1.83985 -0.14829 -5.585 26.4318 0.989605 4.14687 -11.3542 -0.522091 70.7149 6.10533 1.57244 102.402 5.00663 15.2552 4.57376e-007 3.88241e-007 -7.31331e-006 9.55914 11.9672 -2.12885 -1.31044e-005 -2.32887e-007 -3.00544 8.02899 -4.95142 0.697669 -72.3155 5.59674 -1.05935 -101.309 12.0025 -25.4032 1.0364e-007 4.13987e-008 1.92324e-006 -8.37125 0.0656569 0.384182 5.39996e-006 -3.60118e-006 3.02922 -8.02921 -4.95144 -0.697652 173.049 3.34942 2.80394 180 7.01542e-015 178.901 177.606 7.31338 179.906 -1.26887e-006 2.66426e-006 0.0758681 -18.3531 67.5041 19.1367 8.13568 25.2327 -3.48739 -175.841 -1.16024 0.398233 4.54188e-006 -4.6773e-006 -1.14184 -1.3459 -5.52097 0.104604 4.11793e-006 -1.63235e-006 -0.0281729 18.3282 67.455 -19.0753 -8.13186 25.2329 3.48576 
